<?xml version="1.0" encoding="iso-8859-1"?>
<!-- Generator: Adobe Illustrator 16.0.0, SVG Export Plug-In . SVG Version: 6.00 Build 0)  -->
<!DOCTYPE svg PUBLIC "-//W3C//DTD SVG 1.1//EN" "http://www.w3.org/Graphics/SVG/1.1/DTD/svg11.dtd">
<svg version="1.1" xmlns="http://www.w3.org/2000/svg" xmlns:xlink="http://www.w3.org/1999/xlink" x="0px" y="0px" width="34.61px"
	 height="34.613px" viewBox="0 0 34.61 34.613" style="enable-background:new 0 0 34.61 34.613;" xml:space="preserve">
<g id="b61_bone">
	<path d="M33.404,7.033c-1.607-1.609-4.217-1.609-5.826,0c1.609-1.609,1.609-4.219,0-5.826c-1.609-1.609-4.217-1.609-5.826,0
		c-1.609,1.607-1.609,4.217,0,5.826c0.439,0.441,0.958,0.748,1.508,0.948L7.979,23.261c-0.2-0.548-0.509-1.066-0.946-1.508
		c-1.609-1.61-4.219-1.61-5.827,0c-1.608,1.608-1.608,4.217,0,5.828c1.557,1.554,4.04,1.591,5.657,0.137l0.031,0.029
		c-1.455,1.618-1.417,4.104,0.139,5.659c1.608,1.609,4.216,1.609,5.826,0c1.609-1.608,1.609-4.217,0-5.825
		c-0.44-0.442-0.958-0.75-1.504-0.949l15.275-15.279c0.199,0.549,0.507,1.067,0.947,1.507c1.609,1.607,4.219,1.607,5.826,0
		C35.012,11.251,35.012,8.642,33.404,7.033z"/>
</g>
<g id="Capa_1">
</g>
</svg>
