<?xml version="1.0" encoding="iso-8859-1"?>
<!-- Generator: Adobe Illustrator 16.0.4, SVG Export Plug-In . SVG Version: 6.00 Build 0)  -->
<!DOCTYPE svg PUBLIC "-//W3C//DTD SVG 1.1//EN" "http://www.w3.org/Graphics/SVG/1.1/DTD/svg11.dtd">
<svg version="1.1" id="Capa_1" xmlns="http://www.w3.org/2000/svg" xmlns:xlink="http://www.w3.org/1999/xlink" x="0px" y="0px"
	 width="20px" height="20px" viewBox="0 0 20 20" style="enable-background:new 0 0 20 20;" xml:space="preserve">
<path style="fill:#010002;" d="M6.162,11.835c0,0.402-0.329,0.732-0.733,0.732c-0.401,0-0.731-0.33-0.731-0.732
	c0-0.404,0.33-0.734,0.731-0.734C5.833,11.101,6.162,11.431,6.162,11.835z M14.595,11.101c-0.404,0-0.733,0.33-0.733,0.734
	c0,0.402,0.329,0.732,0.733,0.732s0.733-0.33,0.733-0.732C15.328,11.431,14.999,11.101,14.595,11.101z M6.602,8.948h2.61V7.063
	c0,0-0.98,0-1.327,0C7.608,7.063,6.954,7.849,6.602,8.948z M20,4v12c0,2.2-1.8,4-4,4H4c-2.2,0-4-1.8-4-4V4c0-2.2,1.8-4,4-4h12
	C18.2,0,20,1.8,20,4z M6.792,11.835c0-0.752-0.611-1.363-1.363-1.363c-0.75,0-1.36,0.611-1.36,1.363c0,0.748,0.61,1.359,1.36,1.359
	C6.181,13.194,6.792,12.583,6.792,11.835z M15.955,11.835c0-0.752-0.609-1.363-1.36-1.363s-1.361,0.611-1.361,1.363
	c0,0.748,0.61,1.359,1.361,1.359S15.955,12.583,15.955,11.835z M17.5,10.815h-0.263c0-1.322-0.824-1.48-0.824-1.48
	c-1.212-0.17-3.3-0.258-3.3-0.258c-0.191-0.332-1.076-2.271-1.591-2.271c-0.174,0-3.867,0-4.521,0c-0.655,0-1.729,1.891-1.964,2.318
	c0,0-0.822,0.141-1.21,0.23c-0.215,0.049-0.812,0.061-0.812,1.727H2.5v0.754h1.255c0-0.926,0.751-1.676,1.674-1.676
	c0.927,0,1.676,0.75,1.676,1.676h5.814c0-0.926,0.748-1.676,1.676-1.676c0.925,0,1.675,0.75,1.675,1.676h1.23V10.815z M11.392,7.063
	c-0.347,0-1.693,0-1.693,0v1.885l3.021,0.119C12.505,8.659,11.74,7.063,11.392,7.063z"/>
<g>
</g>
<g>
</g>
<g>
</g>
<g>
</g>
<g>
</g>
<g>
</g>
<g>
</g>
<g>
</g>
<g>
</g>
<g>
</g>
<g>
</g>
<g>
</g>
<g>
</g>
<g>
</g>
<g>
</g>
</svg>
