<?xml version="1.0" encoding="utf-8"?>
<!-- Generator: Adobe Illustrator 16.0.4, SVG Export Plug-In . SVG Version: 6.00 Build 0)  -->
<!DOCTYPE svg PUBLIC "-//W3C//DTD SVG 1.1//EN" "http://www.w3.org/Graphics/SVG/1.1/DTD/svg11.dtd">
<svg version="1.1" id="Capa_1" xmlns="http://www.w3.org/2000/svg" xmlns:xlink="http://www.w3.org/1999/xlink" x="0px" y="0px"
	 width="20.816px" height="24.585px" viewBox="0 0 20.816 24.585" enable-background="new 0 0 20.816 24.585" xml:space="preserve">
<path fill="#231F20" d="M9.399,21.011c0.145,2.34-0.337,3.27-1.966,3.539c-1.628,0.273-3.212-1.125-3.544-3.117
	c-0.152-0.916-0.308-2.78-0.498-3.594l-1.422-3.932c-0.081-0.349-1.012-2-1.161-2.723C0.503,9.72,1.445,8.286,2.908,7.979l2.56-0.53
	c0.384-0.082,1.527-0.161,1.527-0.161c1.57-0.009,2.335,0.8,2.344,2.372c0.004,0.91-0.964,2.221-1.604,2.324
	c-0.642,0.099-0.582-0.131-1.017-0.13c-0.625,0.005-1.231,0.541-1.228,1.166v0.054l0.021,0.447c0.017,0.277-0.047,1.562,0.761,3.197
	C7.08,18.349,8.896,17.919,9.399,21.011z M7.494,6.881c0.65-0.003,1.175-0.779,1.17-1.733S8.128,3.423,7.477,3.427
	S6.302,4.206,6.307,5.16C6.311,6.113,6.843,6.884,7.494,6.881z M3.637,7.145c0.389-0.093,0.59-0.625,0.455-1.188
	C3.953,5.395,3.533,5.013,3.147,5.104C2.761,5.198,2.56,5.73,2.695,6.292C2.833,6.856,3.252,7.239,3.637,7.145z M17.912,4.503
	l-2.565-0.504c-0.388-0.079-1.532-0.146-1.532-0.146c-1.567,0.01-2.319,0.828-2.312,2.398c0.004,0.911,0.985,2.21,1.625,2.304
	c0.643,0.094,0.58-0.14,1.018-0.14c0.625-0.004,1.236,0.528,1.239,1.152v0.055l-0.018,0.446c-0.014,0.278,0.064,1.569-0.727,3.206
	c-0.791,1.642-2.608,1.229-3.076,4.324c-0.123,2.343,0.372,3.271,2,3.522c1.629,0.254,3.201-1.16,3.512-3.158
	c0.14-0.916,0.274-2.78,0.459-3.596l1.379-3.949c0.08-0.349,0.99-2.01,1.134-2.732C20.333,6.216,19.378,4.793,17.912,4.503z
	 M5.339,6.717C5.802,6.651,6.091,6.052,5.99,5.379c-0.1-0.669-0.552-1.156-1.01-1.091c-0.458,0.071-0.75,0.669-0.649,1.34
	C4.432,6.298,4.882,6.784,5.339,6.717z M1.002,7.841c-0.15-0.377-0.479-0.596-0.734-0.494C0.009,7.45-0.076,7.838,0.075,8.212
	c0.15,0.374,0.481,0.593,0.737,0.492C1.067,8.6,1.154,8.214,1.002,7.841z M2.097,7.84c0.325-0.13,0.432-0.622,0.242-1.096
	C2.147,6.267,1.728,5.987,1.407,6.12C1.08,6.248,0.973,6.741,1.162,7.215C1.353,7.691,1.771,7.969,2.097,7.84z M13.306,3.453
	c0.649-0.003,1.173-0.779,1.168-1.733s-0.535-1.724-1.185-1.721c-0.649,0.003-1.173,0.779-1.168,1.733
	C12.126,2.686,12.656,3.456,13.306,3.453z M15.463,3.265c0.464,0.063,0.906-0.432,0.999-1.102c0.088-0.672-0.205-1.268-0.664-1.327
	c-0.459-0.063-0.904,0.428-0.998,1.1C14.708,2.604,15.006,3.202,15.463,3.265z M17.177,3.686c0.386,0.088,0.804-0.298,0.934-0.863
	s-0.077-1.096-0.463-1.184c-0.386-0.089-0.804,0.298-0.934,0.863S16.791,3.597,17.177,3.686z M18.72,4.352
	c0.327,0.127,0.742-0.156,0.927-0.635c0.189-0.477,0.074-0.967-0.253-1.092c-0.326-0.129-0.74,0.157-0.927,0.632
	C18.28,3.736,18.395,4.224,18.72,4.352z M20.553,3.839c-0.258-0.101-0.586,0.123-0.732,0.5c-0.146,0.376-0.056,0.763,0.202,0.863
	c0.258,0.1,0.586-0.124,0.732-0.5C20.902,4.326,20.811,3.94,20.553,3.839z"/>
</svg>
