<?xml version="1.0" encoding="utf-8"?>
<!-- Generator: Adobe Illustrator 16.0.4, SVG Export Plug-In . SVG Version: 6.00 Build 0)  -->
<!DOCTYPE svg PUBLIC "-//W3C//DTD SVG 1.1//EN" "http://www.w3.org/Graphics/SVG/1.1/DTD/svg11.dtd">
<svg version="1.1" id="Layer_1" xmlns="http://www.w3.org/2000/svg" xmlns:xlink="http://www.w3.org/1999/xlink" x="0px" y="0px"
	 width="26px" height="26px" viewBox="0 0 26 26" enable-background="new 0 0 26 26" xml:space="preserve">
<path d="M12.752,6.649l0.898,1.453l-1.625,1.191l-0.925-1.496L9.794,8.605L8.985,7.298l1.308-0.809l0.809,1.306L12.752,6.649z
	 M12.834,10.599l-0.807-1.306l-1.308,0.808l0.807,1.306L12.834,10.599z M20.32,7.768L20.176,8.08
	c-0.26,1.43-1.146,2.388-1.805,2.795c-1.426,0.881-2.903,0.353-2.964,0.331c-0.958-0.203-1.814-0.087-2.52,0.35
	c-1.308,0.809-1.681,2.467-1.684,2.486l-0.087,0.407l5.182,8.378l-0.839,0.521L6.23,8.428C6.053,8.498,5.846,8.44,5.742,8.272
	C5.624,8.081,5.683,7.833,5.873,7.715l0.694-0.428c0.188-0.118,0.438-0.059,0.556,0.132C7.221,7.578,7.19,7.773,7.067,7.904
	l0.249,0.404l0.006-0.013c0.542-1.315,1.232-2.238,2.05-2.742c1.484-0.917,2.84-0.154,2.897-0.121
	c1.16,0.676,1.986,0.458,2.474,0.156c0.209-0.13,0.319-0.256,0.319-0.256c1.146-1.005,1.607-2.143,1.81-2.559
	c0.202-0.415,0.563,0.383,0.563,0.383L20.32,7.768z M16.702,3.862L16.911,4.2l0.513-0.4l-0.41-0.662
	C16.93,3.305,16.854,3.609,16.702,3.862z M11.095,13.253l-0.235,0.146l0.111,0.177C11.003,13.483,11.046,13.37,11.095,13.253z
	 M15.344,10.841l-0.18-0.291l-0.176,0.238C15.105,10.801,15.225,10.817,15.344,10.841z M16.611,9.965l-0.707-1.142l1.433-1.01
	l-0.809-1.306l-1.431,1.012l-0.839-1.355c-0.168,0.04-0.356,0.064-0.563,0.062L12.753,6.65l-0.518-0.834
	c-0.048-0.027-0.095-0.051-0.144-0.079c-0.016-0.009-0.141-0.079-0.346-0.147l-1.453,0.899L9.811,5.714
	C9.728,5.753,9.643,5.8,9.557,5.853C9.222,6.06,8.912,6.35,8.623,6.713l0.361,0.586L7.837,8.007
	C7.785,8.118,7.734,8.228,7.684,8.346l0.707,1.126l1.402-0.867l0.926,1.495l-1.391,0.861l0.817,1.3l1.381-0.854l0.351,0.565
	c0.227-0.264,0.497-0.514,0.825-0.718c0.132-0.08,0.269-0.147,0.408-0.21l-0.276-0.446l1.632-1.176L13.65,8.102l1.445-0.583
	l0.807,1.305l-1.435,0.598l0.669,1.081L16.611,9.965z M19.8,7.604L19.779,7.57l-0.502,0.456L18.579,6.9l0.526-0.409l-0.871-1.394
	L17.77,5.593l-0.858-1.39l-0.757,0.468c-0.133,0.176-0.281,0.349-0.438,0.519l0.812,1.315l1.243-0.913L18.579,6.9l-1.241,0.912
	l0.707,1.142l-1.396,1.072l0.576,0.93c0.312-0.065,0.639-0.182,0.961-0.381c0.205-0.127,0.397-0.282,0.576-0.461l-0.717-1.159
	l1.232-0.929l0.41,0.663L19.8,7.604z"/>
</svg>
